<?xml version="1.0" encoding="UTF-8"?>
<svg width="400px" height="26px" viewBox="0 0 400 26" version="1.1" xmlns="http://www.w3.org/2000/svg" xmlns:xlink="http://www.w3.org/1999/xlink">
    <title>排气管黄色横向</title>
    <defs>
        <linearGradient x1="50%" y1="100%" x2="50%" y2="0%" id="paiqiguanhuangsehengxiang-linearGradient-1">
            <stop stop-color="#EDA700" offset="0.00273164336%"></stop>
            <stop stop-color="#FED600" offset="47.772857%"></stop>
            <stop stop-color="#EDA700" offset="100%"></stop>
        </linearGradient>
        <linearGradient x1="100%" y1="50%" x2="4.57966998e-14%" y2="50%" id="paiqiguanhuangsehengxiang-linearGradient-2">
            <stop stop-color="#FFFFFF" stop-opacity="0" offset="0%"></stop>
            <stop stop-color="#FFFFFF" stop-opacity="0.240376079" offset="11.421127%"></stop>
            <stop stop-color="#FFFFFF" stop-opacity="0.609522679" offset="27.2567075%"></stop>
            <stop stop-color="#FFFFFF" offset="46.294766%"></stop>
            <stop stop-color="#FFFFFF" stop-opacity="0.646041337" offset="69.4633065%"></stop>
            <stop stop-color="#FFFFFF" stop-opacity="0.205751646" offset="100%"></stop>
        </linearGradient>
    </defs>
	
	 <!-- 静止状态  -->
	 <g id="sw-0" display="none"  stroke="none" stroke-width="1" fill="none" fill-rule="evenodd">
        <rect id="矩形" fill="url(#paiqiguanhuangsehengxiang-linearGradient-1)" transform="translate(200.000000, 13.000000) rotate(-180.000000) translate(-200.000000, -13.000000) " x="-6.82121026e-13" y="-4.54747351e-13" width="400" height="26"></rect>
     </g>
	
	<!-- 动画状态  -->
    <g id="sw-1"  stroke="none" stroke-width="1" fill="none" fill-rule="evenodd">
        <rect id="矩形" fill="url(#paiqiguanhuangsehengxiang-linearGradient-1)" transform="translate(200.000000, 13.000000) rotate(-180.000000) translate(-200.000000, -13.000000) " x="-6.82121026e-13" y="-4.54747351e-13" width="400" height="26"></rect>
        
		<path d="M32.5,14 C34.4329966,14 36,15.5670034 36,17.5 C36,19.4329966 34.4329966,21 32.5,21 C30.5670034,21 29,19.4329966 29,17.5 C29,15.5670034 30.5670034,14 32.5,14 Z M22,6 C25.3137085,6 28,8.6862915 28,12 C28,15.3137085 25.3137085,18 22,18 C18.6862915,18 16,15.3137085 16,12 C16,8.6862915 18.6862915,6 22,6 Z M37.5,6 C38.8807119,6 40,7.11928813 40,8.5 C40,9.88071187 38.8807119,11 37.5,11 C36.1192881,11 35,9.88071187 35,8.5 C35,7.11928813 36.1192881,6 37.5,6 Z M30,5 C31.1045695,5 32,5.8954305 32,7 C32,8.1045695 31.1045695,9 30,9 C28.8954305,9 28,8.1045695 28,7 C28,5.8954305 28.8954305,5 30,5 Z M2,19 C3.1045695,19 4,18.1045695 4,17 C4,15.8954305 3.1045695,15 2,15 C0.8954305,15 0,15.8954305 0,17 C0,18.1045695 0.8954305,19 2,19 Z M9.5,14 C11.4329966,14 13,12.4329966 13,10.5 C13,8.56700338 11.4329966,7 9.5,7 C7.56700338,7 6,8.56700338 6,10.5 C6,12.4329966 7.56700338,14 9.5,14 Z" id="形状结合" fill="url(#paiqiguanhuangsehengxiang-linearGradient-2)">
		<animateTransform 
				attributeType="XML" 
				attributeName="transform"  
				type="translate" 
				values="-56, 0;0,0"
                dur="1s"
				fill="freeze"
                repeatCount="indefinite" /> 	
		</path>
		
		<path d="M32.5,14 C34.4329966,14 36,15.5670034 36,17.5 C36,19.4329966 34.4329966,21 32.5,21 C30.5670034,21 29,19.4329966 29,17.5 C29,15.5670034 30.5670034,14 32.5,14 Z M22,6 C25.3137085,6 28,8.6862915 28,12 C28,15.3137085 25.3137085,18 22,18 C18.6862915,18 16,15.3137085 16,12 C16,8.6862915 18.6862915,6 22,6 Z M37.5,6 C38.8807119,6 40,7.11928813 40,8.5 C40,9.88071187 38.8807119,11 37.5,11 C36.1192881,11 35,9.88071187 35,8.5 C35,7.11928813 36.1192881,6 37.5,6 Z M30,5 C31.1045695,5 32,5.8954305 32,7 C32,8.1045695 31.1045695,9 30,9 C28.8954305,9 28,8.1045695 28,7 C28,5.8954305 28.8954305,5 30,5 Z M2,19 C3.1045695,19 4,18.1045695 4,17 C4,15.8954305 3.1045695,15 2,15 C0.8954305,15 0,15.8954305 0,17 C0,18.1045695 0.8954305,19 2,19 Z M9.5,14 C11.4329966,14 13,12.4329966 13,10.5 C13,8.56700338 11.4329966,7 9.5,7 C7.56700338,7 6,8.56700338 6,10.5 C6,12.4329966 7.56700338,14 9.5,14 Z" id="形状结合" fill="url(#paiqiguanhuangsehengxiang-linearGradient-2)">
		<animateTransform 
				attributeType="XML" 
				attributeName="transform"  
				type="translate" 
				values="0, 0;56,0"
                dur="1s"
				fill="freeze"
                repeatCount="indefinite" /> 	
		</path>
        <path d="M88.5,14 C90.4329966,14 92,15.5670034 92,17.5 C92,19.4329966 90.4329966,21 88.5,21 C86.5670034,21 85,19.4329966 85,17.5 C85,15.5670034 86.5670034,14 88.5,14 Z M78,6 C81.3137085,6 84,8.6862915 84,12 C84,15.3137085 81.3137085,18 78,18 C74.6862915,18 72,15.3137085 72,12 C72,8.6862915 74.6862915,6 78,6 Z M93.5,6 C94.8807119,6 96,7.11928813 96,8.5 C96,9.88071187 94.8807119,11 93.5,11 C92.1192881,11 91,9.88071187 91,8.5 C91,7.11928813 92.1192881,6 93.5,6 Z M86,5 C87.1045695,5 88,5.8954305 88,7 C88,8.1045695 87.1045695,9 86,9 C84.8954305,9 84,8.1045695 84,7 C84,5.8954305 84.8954305,5 86,5 Z M58,19 C59.1045695,19 60,18.1045695 60,17 C60,15.8954305 59.1045695,15 58,15 C56.8954305,15 56,15.8954305 56,17 C56,18.1045695 56.8954305,19 58,19 Z M65.5,14 C67.4329966,14 69,12.4329966 69,10.5 C69,8.56700338 67.4329966,7 65.5,7 C63.5670034,7 62,8.56700338 62,10.5 C62,12.4329966 63.5670034,14 65.5,14 Z" id="形状结合备份" fill="url(#paiqiguanhuangsehengxiang-linearGradient-2)">
		<animateTransform 
				attributeType="XML" 
				attributeName="transform"  
				type="translate" 
				values="0, 0;56,0"
                dur="1s"
				fill="freeze"
                repeatCount="indefinite" /> 	
		</path>
        <path d="M144.5,14 C146.432997,14 148,15.5670034 148,17.5 C148,19.4329966 146.432997,21 144.5,21 C142.567003,21 141,19.4329966 141,17.5 C141,15.5670034 142.567003,14 144.5,14 Z M134,6 C137.313708,6 140,8.6862915 140,12 C140,15.3137085 137.313708,18 134,18 C130.686292,18 128,15.3137085 128,12 C128,8.6862915 130.686292,6 134,6 Z M149.5,6 C150.880712,6 152,7.11928813 152,8.5 C152,9.88071187 150.880712,11 149.5,11 C148.119288,11 147,9.88071187 147,8.5 C147,7.11928813 148.119288,6 149.5,6 Z M142,5 C143.104569,5 144,5.8954305 144,7 C144,8.1045695 143.104569,9 142,9 C140.895431,9 140,8.1045695 140,7 C140,5.8954305 140.895431,5 142,5 Z M114,19 C115.104569,19 116,18.1045695 116,17 C116,15.8954305 115.104569,15 114,15 C112.895431,15 112,15.8954305 112,17 C112,18.1045695 112.895431,19 114,19 Z M121.5,14 C123.432997,14 125,12.4329966 125,10.5 C125,8.56700338 123.432997,7 121.5,7 C119.567003,7 118,8.56700338 118,10.5 C118,12.4329966 119.567003,14 121.5,14 Z" id="形状结合备份-2" fill="url(#paiqiguanhuangsehengxiang-linearGradient-2)">
		<animateTransform 
				attributeType="XML" 
				attributeName="transform"  
				type="translate" 
				values="0, 0;56,0"
                dur="1s"
				fill="freeze"
                repeatCount="indefinite" /> 	
		</path>
        <path d="M200.5,14 C202.432997,14 204,15.5670034 204,17.5 C204,19.4329966 202.432997,21 200.5,21 C198.567003,21 197,19.4329966 197,17.5 C197,15.5670034 198.567003,14 200.5,14 Z M190,6 C193.313708,6 196,8.6862915 196,12 C196,15.3137085 193.313708,18 190,18 C186.686292,18 184,15.3137085 184,12 C184,8.6862915 186.686292,6 190,6 Z M205.5,6 C206.880712,6 208,7.11928813 208,8.5 C208,9.88071187 206.880712,11 205.5,11 C204.119288,11 203,9.88071187 203,8.5 C203,7.11928813 204.119288,6 205.5,6 Z M198,5 C199.104569,5 200,5.8954305 200,7 C200,8.1045695 199.104569,9 198,9 C196.895431,9 196,8.1045695 196,7 C196,5.8954305 196.895431,5 198,5 Z M170,19 C171.104569,19 172,18.1045695 172,17 C172,15.8954305 171.104569,15 170,15 C168.895431,15 168,15.8954305 168,17 C168,18.1045695 168.895431,19 170,19 Z M177.5,14 C179.432997,14 181,12.4329966 181,10.5 C181,8.56700338 179.432997,7 177.5,7 C175.567003,7 174,8.56700338 174,10.5 C174,12.4329966 175.567003,14 177.5,14 Z" id="形状结合备份-3" fill="url(#paiqiguanhuangsehengxiang-linearGradient-2)">
		<animateTransform 
				attributeType="XML" 
				attributeName="transform"  
				type="translate" 
				values="0, 0;56,0"
                dur="1s"
				fill="freeze"
                repeatCount="indefinite" /> 	
		</path>
        <path d="M256.5,14 C258.432997,14 260,15.5670034 260,17.5 C260,19.4329966 258.432997,21 256.5,21 C254.567003,21 253,19.4329966 253,17.5 C253,15.5670034 254.567003,14 256.5,14 Z M246,6 C249.313708,6 252,8.6862915 252,12 C252,15.3137085 249.313708,18 246,18 C242.686292,18 240,15.3137085 240,12 C240,8.6862915 242.686292,6 246,6 Z M261.5,6 C262.880712,6 264,7.11928813 264,8.5 C264,9.88071187 262.880712,11 261.5,11 C260.119288,11 259,9.88071187 259,8.5 C259,7.11928813 260.119288,6 261.5,6 Z M254,5 C255.104569,5 256,5.8954305 256,7 C256,8.1045695 255.104569,9 254,9 C252.895431,9 252,8.1045695 252,7 C252,5.8954305 252.895431,5 254,5 Z M226,19 C227.104569,19 228,18.1045695 228,17 C228,15.8954305 227.104569,15 226,15 C224.895431,15 224,15.8954305 224,17 C224,18.1045695 224.895431,19 226,19 Z M233.5,14 C235.432997,14 237,12.4329966 237,10.5 C237,8.56700338 235.432997,7 233.5,7 C231.567003,7 230,8.56700338 230,10.5 C230,12.4329966 231.567003,14 233.5,14 Z" id="形状结合备份-4" fill="url(#paiqiguanhuangsehengxiang-linearGradient-2)">
		<animateTransform 
				attributeType="XML" 
				attributeName="transform"  
				type="translate" 
				values="0, 0;56,0"
                dur="1s"
				fill="freeze"
                repeatCount="indefinite" /> 	
		</path>
        <path d="M312.5,14 C314.432997,14 316,15.5670034 316,17.5 C316,19.4329966 314.432997,21 312.5,21 C310.567003,21 309,19.4329966 309,17.5 C309,15.5670034 310.567003,14 312.5,14 Z M302,6 C305.313708,6 308,8.6862915 308,12 C308,15.3137085 305.313708,18 302,18 C298.686292,18 296,15.3137085 296,12 C296,8.6862915 298.686292,6 302,6 Z M317.5,6 C318.880712,6 320,7.11928813 320,8.5 C320,9.88071187 318.880712,11 317.5,11 C316.119288,11 315,9.88071187 315,8.5 C315,7.11928813 316.119288,6 317.5,6 Z M310,5 C311.104569,5 312,5.8954305 312,7 C312,8.1045695 311.104569,9 310,9 C308.895431,9 308,8.1045695 308,7 C308,5.8954305 308.895431,5 310,5 Z M282,19 C283.104569,19 284,18.1045695 284,17 C284,15.8954305 283.104569,15 282,15 C280.895431,15 280,15.8954305 280,17 C280,18.1045695 280.895431,19 282,19 Z M289.5,14 C291.432997,14 293,12.4329966 293,10.5 C293,8.56700338 291.432997,7 289.5,7 C287.567003,7 286,8.56700338 286,10.5 C286,12.4329966 287.567003,14 289.5,14 Z" id="形状结合备份-5" fill="url(#paiqiguanhuangsehengxiang-linearGradient-2)">
		<animateTransform 
				attributeType="XML" 
				attributeName="transform"  
				type="translate" 
				values="0, 0;56,0"
                dur="1s"
				fill="freeze"
                repeatCount="indefinite" /> 	
		</path>
        <path d="M368.5,14 C370.432997,14 372,15.5670034 372,17.5 C372,19.4329966 370.432997,21 368.5,21 C366.567003,21 365,19.4329966 365,17.5 C365,15.5670034 366.567003,14 368.5,14 Z M358,6 C361.313708,6 364,8.6862915 364,12 C364,15.3137085 361.313708,18 358,18 C354.686292,18 352,15.3137085 352,12 C352,8.6862915 354.686292,6 358,6 Z M373.5,6 C374.880712,6 376,7.11928813 376,8.5 C376,9.88071187 374.880712,11 373.5,11 C372.119288,11 371,9.88071187 371,8.5 C371,7.11928813 372.119288,6 373.5,6 Z M366,5 C367.104569,5 368,5.8954305 368,7 C368,8.1045695 367.104569,9 366,9 C364.895431,9 364,8.1045695 364,7 C364,5.8954305 364.895431,5 366,5 Z M338,19 C339.104569,19 340,18.1045695 340,17 C340,15.8954305 339.104569,15 338,15 C336.895431,15 336,15.8954305 336,17 C336,18.1045695 336.895431,19 338,19 Z M345.5,14 C347.432997,14 349,12.4329966 349,10.5 C349,8.56700338 347.432997,7 345.5,7 C343.567003,7 342,8.56700338 342,10.5 C342,12.4329966 343.567003,14 345.5,14 Z" id="形状结合备份-6" fill="url(#paiqiguanhuangsehengxiang-linearGradient-2)">
		<animateTransform 
				attributeType="XML" 
				attributeName="transform"  
				type="translate" 
				values="0, 0;56,0"
                dur="1s"
				fill="freeze"
                repeatCount="indefinite" /> 	
		</path>
        <path d="M424.5,14 C426.432997,14 428,15.5670034 428,17.5 C428,19.4329966 426.432997,21 424.5,21 C422.567003,21 421,19.4329966 421,17.5 C421,15.5670034 422.567003,14 424.5,14 Z M414,6 C417.313708,6 420,8.6862915 420,12 C420,15.3137085 417.313708,18 414,18 C410.686292,18 408,15.3137085 408,12 C408,8.6862915 410.686292,6 414,6 Z M429.5,6 C430.880712,6 432,7.11928813 432,8.5 C432,9.88071187 430.880712,11 429.5,11 C428.119288,11 427,9.88071187 427,8.5 C427,7.11928813 428.119288,6 429.5,6 Z M422,5 C423.104569,5 424,5.8954305 424,7 C424,8.1045695 423.104569,9 422,9 C420.895431,9 420,8.1045695 420,7 C420,5.8954305 420.895431,5 422,5 Z M394,19 C395.104569,19 396,18.1045695 396,17 C396,15.8954305 395.104569,15 394,15 C392.895431,15 392,15.8954305 392,17 C392,18.1045695 392.895431,19 394,19 Z M401.5,14 C403.432997,14 405,12.4329966 405,10.5 C405,8.56700338 403.432997,7 401.5,7 C399.567003,7 398,8.56700338 398,10.5 C398,12.4329966 399.567003,14 401.5,14 Z" id="形状结合备份-7" fill="url(#paiqiguanhuangsehengxiang-linearGradient-2)">
		<animateTransform 
				attributeType="XML" 
				attributeName="transform"  
				type="translate" 
				values="0, 0;56,0"
                dur="1s"
				fill="freeze"
                repeatCount="indefinite" /> 	
		</path>
    </g>
</svg>